/* XPM */
static const char * const  qtthumbwheel_xpm[] = {
"30 20 35 1",
" 	c None",
".	c #FFFAFF",
"+	c #8B8D8B",
"@	c #000000",
"#	c #7B7D7B",
"$	c #8B898B",
"%	c #949594",
"&	c #A4A1A4",
"*	c #ACAEAC",
"=	c #B4B6B4",
"-	c #BDBEBD",
";	c #CDCACD",
">	c #D5D2D5",
",	c #D5D6D5",
"'	c #DEDEDE",
")	c #E6E2E6",
"!	c #E6E6E6",
"~	c #393C39",
"{	c #4A484A",
"]	c #525052",
"^	c #525552",
"/	c #5A595A",
"(	c #5A5D5A",
"_	c #626562",
":	c #6A696A",
"<	c #6A6D6A",
"[	c #737173",
"}	c #414441",
"|	c #9C999C",
"1	c #7B797B",
"2	c #838183",
"3	c #FFFFFF",
"4	c #ACAAAC",
"5	c #9C9D9C",
"6	c #A4A5A4",
".............................+",
".@@@@@@@@@@@@@@@@@@@@@@@@@@@@+",
".#$%&*=-;>,'))!!!))',>;-=*&%$+",
".#$%&*=-;>,'))!!!))',>;-=*&%$+",
".~${]^/(_:,<[[[[[[['::_(/^]%}+",
".|$=12$+%:,344***4['35%+$2]%6+",
".|$=12$+%:,344***4['35%+$2]%6+",
".|$=12$+%:,344***4['35%+$2]%6+",
".|$=12$+%:,344***4['35%+$2]%6+",
".|$=12$+%:,344***4['35%+$2]%6+",
".|$=12$+%:,344***4['35%+$2]%6+",
".|$=12$+%:,344***4['35%+$2]%6+",
".|$=12$+%:,344***4['35%+$2]%6+",
".|$=12$+%:,344***4['35%+$2]%6+",
".|$=12$+%5,344***44'35%+$21%6+",
".|$=12$+%5,344***44'35%+$21%6+",
".#$%&*=-;>,'))!!!))',>;-=*&%$+",
".#$%&*=-;>,'))!!!))',>;-=*&%$+",
".@@@@@@@@@@@@@@@@@@@@@@@@@@@@+",
"++++++++++++++++++++++++++++++"};
